<svg width="58" height="58" viewBox="0 0 58 58" fill="none" xmlns="http://www.w3.org/2000/svg">
<g clip-path="url(#clip0_34_272)">
<path d="M29 0C21.1301 0 20.1405 0.03625 17.0484 0.174C13.9563 0.319 11.8501 0.80475 10.005 1.5225C8.06869 2.24868 6.31526 3.39082 4.86838 4.86838C3.39082 6.31526 2.24868 8.06869 1.5225 10.005C0.80475 11.8465 0.315375 13.9562 0.174 17.0375C0.03625 20.1369 0 21.1229 0 29.0036C0 36.8771 0.03625 37.8631 0.174 40.9552C0.319 44.0438 0.80475 46.1499 1.5225 47.995C2.26562 49.9017 3.25525 51.5185 4.86838 53.1316C6.47788 54.7447 8.09463 55.738 10.0014 56.4775C11.8501 57.1953 13.9526 57.6846 17.0411 57.826C20.1369 57.9637 21.1229 58 29 58C36.8771 58 37.8595 57.9637 40.9552 57.826C44.0401 57.681 46.1535 57.1953 47.9986 56.4775C49.9336 55.7509 51.6858 54.6087 53.1316 53.1316C54.7447 51.5185 55.7344 49.9017 56.4775 47.995C57.1916 46.1499 57.681 44.0438 57.826 40.9552C57.9637 37.8631 58 36.8771 58 29C58 21.1229 57.9637 20.1369 57.826 17.0411C57.681 13.9563 57.1916 11.8465 56.4775 10.005C55.7513 8.06869 54.6092 6.31526 53.1316 4.86838C51.6847 3.39082 49.9313 2.24868 47.995 1.5225C46.1462 0.80475 44.0365 0.315375 40.9516 0.174C37.8559 0.03625 36.8735 0 28.9928 0H29ZM26.4009 5.22725H29.0036C36.7466 5.22725 37.6637 5.25262 40.7196 5.394C43.5471 5.52087 45.0841 5.99575 46.1064 6.39087C47.4585 6.9165 48.4264 7.54725 49.4414 8.56225C50.4564 9.57725 51.0835 10.5415 51.6091 11.8973C52.0079 12.9159 52.4791 14.4529 52.606 17.2804C52.7474 20.3363 52.7764 21.2534 52.7764 28.9928C52.7764 36.7321 52.7474 37.6529 52.606 40.7087C52.4791 43.5362 52.0043 45.0696 51.6091 46.0919C51.1409 47.3494 50.3993 48.4872 49.4377 49.4232C48.4227 50.4382 47.4585 51.0654 46.1028 51.591C45.0878 51.9897 43.5508 52.461 40.7196 52.5915C37.6637 52.7293 36.7466 52.7619 29.0036 52.7619C21.2606 52.7619 20.3399 52.7293 17.284 52.5915C14.4565 52.461 12.9231 51.9897 11.9009 51.591C10.6424 51.1243 9.50329 50.3839 8.56588 49.4232C7.60262 48.4866 6.85969 47.3474 6.39087 46.0882C5.99575 45.0696 5.52087 43.5326 5.394 40.7051C5.25625 37.6493 5.22725 36.7321 5.22725 28.9855C5.22725 21.2389 5.25625 20.329 5.394 17.2731C5.5245 14.4456 5.99575 12.9086 6.3945 11.8864C6.92013 10.5343 7.55087 9.56637 8.56588 8.55137C9.58087 7.53638 10.5451 6.90925 11.9009 6.38363C12.9231 5.98488 14.4565 5.51363 17.284 5.38312C19.9592 5.25987 20.996 5.22363 26.4009 5.22V5.22725ZM44.4824 10.0413C44.0254 10.0413 43.5728 10.1313 43.1506 10.3061C42.7284 10.481 42.3448 10.7374 42.0216 11.0605C41.6985 11.3837 41.4422 11.7673 41.2673 12.1895C41.0924 12.6117 41.0024 13.0642 41.0024 13.5212C41.0024 13.9783 41.0924 14.4308 41.2673 14.853C41.4422 15.2752 41.6985 15.6588 42.0216 15.982C42.3448 16.3051 42.7284 16.5615 43.1506 16.7364C43.5728 16.9112 44.0254 17.0012 44.4824 17.0012C45.4053 17.0012 46.2905 16.6346 46.9431 15.982C47.5957 15.3294 47.9624 14.4442 47.9624 13.5212C47.9624 12.5983 47.5957 11.7131 46.9431 11.0605C46.2905 10.4079 45.4053 10.0413 44.4824 10.0413ZM29.0036 14.1085C27.0283 14.0777 25.0665 14.4401 23.2325 15.1748C21.3986 15.9094 19.7291 17.0015 18.3213 18.3875C16.9135 19.7736 15.7954 21.4258 15.0323 23.2481C14.2692 25.0703 13.8761 27.0262 13.8761 29.0018C13.8761 30.9774 14.2692 32.9333 15.0323 34.7556C15.7954 36.5778 16.9135 38.2301 18.3213 39.6161C19.7291 41.0021 21.3986 42.0942 23.2325 42.8289C25.0665 43.5635 27.0283 43.9259 29.0036 43.8951C32.9133 43.8341 36.6423 42.2382 39.3855 39.4518C42.1288 36.6654 43.6664 32.912 43.6664 29.0018C43.6664 25.0916 42.1288 21.3382 39.3855 18.5518C36.6423 15.7654 32.9133 14.1695 29.0036 14.1085ZM29.0036 19.3321C30.2732 19.3321 31.5304 19.5822 32.7034 20.068C33.8763 20.5539 34.9421 21.266 35.8398 22.1638C36.7376 23.0615 37.4497 24.1273 37.9356 25.3003C38.4214 26.4732 38.6715 27.7304 38.6715 29C38.6715 30.2696 38.4214 31.5268 37.9356 32.6997C37.4497 33.8727 36.7376 34.9385 35.8398 35.8362C34.9421 36.734 33.8763 37.4461 32.7034 37.9319C31.5304 38.4178 30.2732 38.6679 29.0036 38.6679C26.4395 38.6679 23.9805 37.6493 22.1674 35.8362C20.3543 34.0231 19.3358 31.5641 19.3358 29C19.3358 26.4359 20.3543 23.9769 22.1674 22.1638C23.9805 20.3507 26.4395 19.3321 29.0036 19.3321Z" fill="black"/>
</g>
<defs>
<clipPath id="clip0_34_272">
<rect width="58" height="58" fill="white"/>
</clipPath>
</defs>
</svg>
