<svg width="175" height="175" viewBox="0 0 175 175" fill="none" xmlns="http://www.w3.org/2000/svg">
<path opacity="0.15" d="M27.0886 154.948C27.0886 156.398 32.2741 157.789 41.5044 158.815C50.7347 159.841 63.2537 160.417 76.3073 160.417C89.3609 160.417 101.88 159.841 111.11 158.815C120.341 157.789 125.526 156.398 125.526 154.948C125.526 153.498 120.341 152.107 111.11 151.081C101.88 150.055 89.3609 149.479 76.3073 149.479C63.2537 149.479 50.7347 150.055 41.5044 151.081C32.2741 152.107 27.0886 153.498 27.0886 154.948Z" fill="#9B6619"/>
<path d="M89.5416 83.3074C90.4514 85.3059 90.958 87.4642 91.0324 89.6588C91.1069 91.8534 90.7478 94.0411 89.9757 96.0967C89.2036 98.1523 88.0336 100.035 86.5327 101.638C85.0319 103.241 83.2296 104.532 81.2291 105.438L25.5208 130.776V107.078C25.5223 106.377 25.726 105.691 26.1075 105.102C26.489 104.514 27.0322 104.048 27.6719 103.76L80.2083 79.8074C81.0499 79.4177 81.9606 79.1992 82.8874 79.1646C83.8142 79.1299 84.7386 79.2797 85.607 79.6054C86.4754 79.931 87.2704 80.426 87.9458 81.0615C88.6213 81.697 89.1637 82.4604 89.5416 83.3074Z" fill="white" stroke="#9B6619" stroke-linecap="round" stroke-linejoin="round"/>
<path d="M70.8021 97.1614C70.4744 97.3142 70.1197 97.4005 69.7585 97.4153C69.3973 97.4301 69.0367 97.3731 68.6977 97.2477C68.3586 97.1222 68.0478 96.9308 67.7832 96.6844C67.5187 96.4381 67.3055 96.1417 67.1562 95.8125L63.5104 87.5L91 74.9947C91.8801 74.6002 92.8808 74.5705 93.7828 74.9122C94.6848 75.2538 95.4146 75.939 95.8125 76.8177C96.2747 77.802 96.5357 78.8688 96.5801 79.9553C96.6245 81.0419 96.4515 82.1264 96.0711 83.1452C95.6908 84.164 95.1108 85.0966 94.3652 85.8882C93.6196 86.6798 92.7234 87.3145 91.7292 87.7552L70.8021 97.1614Z" fill="white"/>
<path d="M90.8906 80.6822C91.7663 80.2853 92.7633 80.2504 93.6646 80.5849C94.5659 80.9195 95.2986 81.5966 95.7031 82.4687C95.8034 82.6561 95.8887 82.8512 95.9583 83.052C96.6938 81.0208 96.6022 78.782 95.7031 76.8177C95.3052 75.939 94.5754 75.2538 93.6734 74.9122C92.7714 74.5705 91.7708 74.6002 90.8906 74.9947L63.401 87.5L65.625 92.2031L90.8906 80.6822Z" fill="white"/>
<path d="M70.8021 97.1614C70.4744 97.3142 70.1197 97.4005 69.7585 97.4153C69.3973 97.4301 69.0367 97.3731 68.6977 97.2477C68.3586 97.1222 68.0478 96.9308 67.7832 96.6844C67.5186 96.4381 67.3055 96.1417 67.1562 95.8125L63.5104 87.5L91 74.9947C91.8801 74.6002 92.8808 74.5705 93.7828 74.9122C94.6848 75.2538 95.4146 75.939 95.8125 76.8177C96.2747 77.802 96.5357 78.8688 96.5801 79.9553C96.6245 81.0419 96.4515 82.1264 96.0711 83.1452C95.6908 84.164 95.1108 85.0966 94.3652 85.8882C93.6196 86.6798 92.7234 87.3145 91.7292 87.7552L70.8021 97.1614Z" stroke="#9B6619" stroke-linecap="round" stroke-linejoin="round"/>
<path d="M25.5208 143.792L94.0989 112.583C98.1298 110.754 101.271 107.402 102.836 103.261C104.401 99.1198 104.261 94.5277 102.448 90.4896C102.079 89.6376 101.546 88.8669 100.879 88.2219C100.211 87.577 99.4225 87.0704 98.5583 86.7316C97.6942 86.3927 96.7715 86.2281 95.8435 86.2474C94.9154 86.2666 94.0004 86.4693 93.151 86.8437L25.5208 117.76V143.792Z" fill="white"/>
<path d="M103.578 94.0261C102.91 96.3519 101.742 98.5034 100.155 100.33C98.5679 102.156 96.6004 103.613 94.3906 104.599L25.5208 135.917V143.792L94.0989 112.583C97.5489 111.023 100.366 108.337 102.088 104.965C103.811 101.593 104.336 97.7358 103.578 94.0261Z" fill="white"/>
<path d="M25.5208 143.792L94.0989 112.583C98.1298 110.754 101.271 107.402 102.836 103.261C104.401 99.1198 104.261 94.5277 102.448 90.4896C102.079 89.6376 101.546 88.8669 100.879 88.2219C100.211 87.577 99.4225 87.0704 98.5583 86.7316C97.6942 86.3927 96.7715 86.2281 95.8435 86.2474C94.9154 86.2666 94.0004 86.4693 93.151 86.8437L25.5208 117.76V143.792Z" stroke="#9B6619" stroke-linecap="round" stroke-linejoin="round"/>
<path d="M83.8542 104.344C83.191 104.642 82.4371 104.668 81.755 104.416C81.0729 104.163 80.5174 103.653 80.2083 102.995L76.5625 94.6822L104.052 82.177C104.928 81.7801 105.925 81.7451 106.826 82.0797C107.727 82.4143 108.46 83.0913 108.865 83.9635C109.322 84.9486 109.579 86.0148 109.621 87.1C109.663 88.1853 109.489 89.2681 109.109 90.2856C108.729 91.303 108.151 92.235 107.408 93.0272C106.665 93.8195 105.772 94.4564 104.781 94.901L83.8542 104.344Z" fill="white"/>
<path d="M103.76 87.8281C104.747 87.4851 105.829 87.5408 106.776 87.9834C107.722 88.426 108.459 89.2205 108.828 90.1978C109.207 89.1761 109.38 88.0893 109.336 87.0004C109.292 85.9115 109.033 84.8421 108.573 83.8541C108.168 82.982 107.436 82.3049 106.534 81.9703C105.633 81.6357 104.636 81.6707 103.76 82.0676L76.2708 94.7916L78.3854 99.4947L103.76 87.8281Z" fill="white"/>
<path d="M83.8542 104.344C83.191 104.642 82.4371 104.668 81.755 104.416C81.0729 104.163 80.5174 103.653 80.2083 102.995L76.5625 94.6822L104.052 82.177C104.928 81.7801 105.925 81.7451 106.826 82.0797C107.727 82.4143 108.46 83.0913 108.865 83.9635C109.322 84.9486 109.579 86.0148 109.621 87.1C109.663 88.1853 109.489 89.2681 109.109 90.2856C108.729 91.303 108.151 92.235 107.408 93.0272C106.665 93.8195 105.772 94.4564 104.781 94.901L83.8542 104.344Z" stroke="#9B6619" stroke-linecap="round" stroke-linejoin="round"/>
<path d="M25.5208 151.776C25.5231 152.347 25.6595 152.91 25.9191 153.419C26.1788 153.928 26.5543 154.368 27.0155 154.705C27.4767 155.042 28.0107 155.266 28.5743 155.359C29.1379 155.452 29.7155 155.411 30.2604 155.24L94.1719 135.406C98.3831 134.073 101.896 131.128 103.945 127.215C105.994 123.301 106.413 118.736 105.109 114.516C104.555 112.739 103.319 111.254 101.672 110.386C100.026 109.518 98.1021 109.338 96.3229 109.885L25.5208 131.906V151.776Z" fill="white"/>
<path d="M95.5208 127.604L25.5208 149.26V151.776C25.5231 152.347 25.6595 152.91 25.9191 153.419C26.1788 153.928 26.5543 154.368 27.0155 154.705C27.4767 155.042 28.0107 155.266 28.5743 155.359C29.1379 155.452 29.7155 155.411 30.2604 155.24L94.1719 135.406C97.7961 134.3 100.936 131.993 103.076 128.866C105.216 125.739 106.229 121.977 105.948 118.198C104.995 120.428 103.569 122.424 101.769 124.048C99.9684 125.672 97.8365 126.885 95.5208 127.604Z" fill="white"/>
<path d="M25.5208 151.776C25.5231 152.347 25.6595 152.91 25.9191 153.419C26.1788 153.928 26.5543 154.368 27.0155 154.705C27.4767 155.042 28.0107 155.266 28.5743 155.359C29.1379 155.452 29.7155 155.411 30.2604 155.24L94.1718 135.406C98.3831 134.073 101.896 131.128 103.945 127.215C105.994 123.301 106.413 118.736 105.109 114.516C104.555 112.739 103.319 111.254 101.672 110.386C100.026 109.518 98.1021 109.338 96.3229 109.885L25.5208 131.906V151.776Z" stroke="#9B6619" stroke-linecap="round" stroke-linejoin="round"/>
<path d="M84.875 125.927C84.1788 126.133 83.4298 126.057 82.7889 125.716C82.148 125.375 81.6665 124.796 81.4479 124.104L78.75 115.391L107.589 106.458C108.048 106.312 108.532 106.258 109.013 106.3C109.493 106.342 109.961 106.479 110.388 106.702C110.815 106.926 111.194 107.233 111.502 107.604C111.81 107.975 112.041 108.403 112.182 108.865C112.821 110.948 112.607 113.2 111.589 115.127C110.571 117.054 108.831 118.499 106.75 119.146L84.875 125.927Z" fill="white"/>
<path d="M106.896 112.073C107.819 111.788 108.818 111.882 109.672 112.333C110.527 112.784 111.167 113.556 111.453 114.479C111.47 114.673 111.47 114.869 111.453 115.063C111.955 114.119 112.264 113.086 112.365 112.022C112.465 110.958 112.353 109.885 112.036 108.865C111.895 108.403 111.664 107.975 111.356 107.604C111.048 107.233 110.669 106.926 110.242 106.702C109.815 106.479 109.347 106.342 108.867 106.3C108.386 106.258 107.902 106.312 107.443 106.458L78.75 115.391L80.2083 120.313L106.896 112.073Z" fill="white"/>
<path d="M84.875 125.927C84.1788 126.133 83.4298 126.057 82.7889 125.716C82.148 125.375 81.6665 124.796 81.4479 124.104L78.75 115.391L107.589 106.458C108.048 106.312 108.532 106.258 109.013 106.3C109.493 106.342 109.961 106.479 110.388 106.702C110.815 106.926 111.194 107.233 111.502 107.604C111.81 107.975 112.041 108.403 112.182 108.865C112.821 110.948 112.607 113.2 111.589 115.127C110.571 117.054 108.831 118.499 106.75 119.146L84.875 125.927Z" stroke="#9B6619" stroke-linecap="round" stroke-linejoin="round"/>
<path d="M141.323 13.8105L146.646 16.3735C148.388 17.214 149.724 18.7117 150.361 20.5371C150.998 22.3626 150.884 24.3664 150.044 26.1079L140.733 45.4199C140.523 45.8547 140.149 46.1884 139.693 46.3477C139.237 46.5069 138.736 46.4788 138.301 46.2693L123.127 38.9558C122.911 38.8518 122.718 38.7062 122.559 38.5275C122.399 38.3487 122.276 38.1403 122.198 37.9142C122.119 37.688 122.085 37.4485 122.099 37.2093C122.113 36.9701 122.173 36.736 122.278 36.5204L131.589 17.2121C132.429 15.4702 133.926 14.1332 135.752 13.4953C137.577 12.8574 139.581 12.9708 141.323 13.8105Z" fill="white"/>
<path d="M123.12 38.9739L125.234 39.9947L131.578 26.7968C132.42 25.0568 133.918 23.7223 135.743 23.0865C137.569 22.4507 139.572 22.5657 141.312 23.4061L146.672 25.9947C147.636 26.472 148.483 27.1568 149.151 27.9999L150.062 26.1405C150.903 24.3999 151.018 22.3968 150.382 20.5715C149.746 18.7462 148.412 17.248 146.672 16.4061L141.312 13.8541C139.572 13.0136 137.569 12.8986 135.743 13.5344C133.918 14.1702 132.42 15.5047 131.578 17.2447L122.281 36.4582C122.164 36.677 122.092 36.9174 122.071 37.1648C122.05 37.4122 122.079 37.6613 122.158 37.8969C122.237 38.1324 122.362 38.3495 122.528 38.5347C122.693 38.7198 122.895 38.8693 123.12 38.9739Z" fill="white"/>
<path d="M141.323 13.8105L146.646 16.3735C148.388 17.214 149.724 18.7117 150.361 20.5371C150.998 22.3626 150.884 24.3664 150.044 26.1079L140.733 45.4199C140.523 45.8547 140.149 46.1884 139.693 46.3477C139.237 46.5069 138.736 46.4788 138.301 46.2693L123.127 38.9558C122.911 38.8518 122.718 38.7062 122.559 38.5275C122.399 38.3487 122.276 38.1403 122.198 37.9142C122.119 37.688 122.085 37.4485 122.099 37.2093C122.113 36.9702 122.173 36.736 122.278 36.5204L131.589 17.2121C132.429 15.4702 133.926 14.1332 135.752 13.4953C137.577 12.8574 139.581 12.9708 141.323 13.8105Z" stroke="#9B6619" stroke-linecap="round" stroke-linejoin="round"/>
<path d="M127.655 41.136L133.828 44.111L119.973 72.8474L113.801 69.8724L127.655 41.136Z" fill="#E5D6CD" stroke="#9B6619" stroke-linecap="round" stroke-linejoin="round"/>
<path d="M120.312 74.8489C117.979 80.1353 112.365 85.7864 100.807 83.3072C105.045 79.7369 108.359 75.1971 110.469 70.0728C111.102 68.7675 112.228 67.7672 113.599 67.292C114.97 66.8168 116.473 66.9056 117.779 67.539C119.084 68.1723 120.084 69.2983 120.559 70.6691C121.035 72.04 120.946 73.5435 120.312 74.8489Z" fill="white"/>
<path d="M105.729 78.4583C104.353 80.286 102.734 81.9173 100.917 83.3073C112.474 85.75 118.089 80.1354 120.422 74.849C120.802 74.0549 120.991 73.1824 120.972 72.3021C120.953 71.4217 120.727 70.5582 120.312 69.7812C119.069 72.5516 117.001 74.8713 114.392 76.424C111.782 77.9768 108.757 78.6871 105.729 78.4583Z" fill="white"/>
<path d="M120.312 74.8489C117.979 80.1353 112.365 85.7864 100.807 83.3072C105.045 79.7369 108.359 75.1971 110.469 70.0728C111.102 68.7675 112.228 67.7672 113.599 67.292C114.97 66.8168 116.473 66.9056 117.779 67.539C119.084 68.1723 120.084 69.2983 120.559 70.6691C121.035 72.04 120.946 73.5435 120.312 74.8489Z" stroke="#9B6619" stroke-linecap="round" stroke-linejoin="round"/>
</svg>
