<svg width="123" height="123" viewBox="0 0 123 123" fill="none" xmlns="http://www.w3.org/2000/svg">
<path d="M59.1733 106.79C54.1815 105.809 49.1932 104.166 44.2083 101.859C39.2302 99.5532 34.7714 96.3433 30.832 92.2296C26.8926 88.116 23.6929 83.0473 21.2329 77.0237C18.7729 70.9967 17.5429 63.7859 17.5429 55.3911V54.5609C17.5429 53.6281 17.8282 52.8765 18.3988 52.3059C18.9728 51.7319 19.7244 51.4449 20.6538 51.4449H21.2893C24.8563 51.4449 29.0929 52.2973 33.9993 54.0022C38.909 55.7037 43.0773 57.7965 46.5043 60.2804C46.9143 54.5506 48.2006 48.568 50.3634 42.3326C52.5261 36.0972 55.309 30.5178 58.712 25.5944C59.4739 24.5352 60.4033 24.0056 61.5 24.0056C62.5968 24.0056 63.5261 24.5352 64.288 25.5944C67.691 30.5144 70.4756 36.1262 72.6418 42.43C74.8011 48.7303 76.0875 54.7454 76.5009 60.4751C79.7262 58.186 83.7271 56.1582 88.5036 54.3917C93.2801 52.6253 97.6176 51.643 101.516 51.4449L102.423 51.3475C103.311 51.2826 104.072 51.5679 104.704 52.2034C105.336 52.8389 105.619 53.5991 105.555 54.484L105.452 55.5859C104.994 62.2757 103.88 68.3215 102.111 73.7232C100.341 79.1216 97.8807 83.91 94.7305 88.0886C91.5803 92.2706 87.711 95.8581 83.1224 98.8511C78.5372 101.848 73.2226 104.328 67.1785 106.293C66.0681 106.662 64.7339 106.879 63.1759 106.944C61.6179 107.012 60.2854 106.961 59.1784 106.79M63.2169 102.244C62.2773 88.1501 58.027 77.4525 50.4659 70.1511C42.9048 62.8497 33.6593 58.3431 22.7294 56.6314C22.5585 56.6314 22.5585 56.6314 22.7294 56.6314C23.669 71.0668 28.0457 81.9147 35.8596 89.1751C43.6735 96.4355 52.7926 100.792 63.2169 102.244C63.3877 102.329 63.3877 102.351 63.2169 102.31C63.046 102.269 63.046 102.247 63.2169 102.244ZM51.5063 63.8064C53.4128 65.3883 55.256 67.3477 57.0361 69.6847C58.8162 72.0217 60.3042 74.2597 61.5 76.3985C62.6514 74.2597 64.1274 72.0217 65.928 69.6847C67.7286 67.3477 69.5838 65.3883 71.4938 63.8064C71.4528 58.6096 70.5576 53.1327 68.8083 47.3756C67.0555 41.622 64.6194 36.1262 61.5 30.8885C58.3806 36.1262 55.9445 41.6066 54.1918 47.3295C52.4424 53.0524 51.5473 58.5447 51.5063 63.8064ZM64.1804 82.4357C65.2054 85.1691 66.0476 87.928 66.707 90.7126C67.3698 93.4972 67.9148 96.7687 68.3419 100.527C72.271 99.174 76.0755 97.358 79.7553 95.0791C83.4316 92.8002 86.7065 89.9029 89.5799 86.3871C92.4499 82.868 94.8552 78.6774 96.7959 73.8155C98.7331 68.9502 99.8914 63.2221 100.271 56.6314C100.271 56.4605 100.271 56.4605 100.271 56.6314C91.9784 57.8272 84.6035 60.7433 78.146 65.3797C71.6885 70.0127 67.0333 75.6981 64.1804 82.4357Z" fill="#E5D6CD"/>
</svg>
