<svg width="96" height="96" viewBox="0 0 96 96" fill="none" xmlns="http://www.w3.org/2000/svg">
<path d="M39.6188 15.1669C22.9688 15.2213 10.5394 20.5688 3.54188 27.1876L5.85938 29.6251C17.5181 18.6301 48.45 10.2001 91.05 33.1501L92.6625 30.1876C72.2625 19.2001 54.3 15.1182 39.6188 15.1669ZM21.45 31.0688C10.9538 35.1751 6.2325 43.3688 3.33 48.7688L6.30375 50.3813C9.16125 45.0376 13.2656 37.8938 22.6875 34.2188C32.1 30.5438 47.1562 30.3001 72.0187 39.9751L73.2562 36.8251C56.0625 30.7126 38.1937 24.6751 21.45 31.0688ZM70.275 45.3188C36.9937 62.4751 21.525 57.5438 4.18875 53.0813L3.34875 56.3626C6.34125 57.1313 9.3375 57.9188 12.4219 58.5938C8.79188 61.1438 7.01813 61.8188 4.88625 63.2063C9.69563 63.0001 12.795 61.4813 16.0819 60.0938C13.7231 63.0001 11.6663 65.9063 7.45688 68.9813C12.5231 67.6313 17.4019 66.1313 21.075 63.5813C18.7369 67.3313 15.8775 70.9876 12.6581 74.5688C18.1763 72.8438 22.35 68.6813 26.6812 64.5563C26.625 68.1376 24.9563 71.7188 23.775 75.3001C27.7125 71.6813 29.4 69.0751 31.7812 65.4563C31.5563 70.9313 33.0938 75.3563 34.4438 80.8313C35.2875 75.6001 36.225 70.3501 36.225 65.2876C39.0375 69.9751 42.8063 74.2501 47.55 78.0563C45.0187 73.6501 42.4875 69.2626 41.1562 64.6876C45.9937 69.2813 51.0375 73.7438 57.0937 77.4751C53.0625 73.0688 49.2375 68.6063 46.7625 63.8438C51.1125 67.9313 55.4812 72.0188 62.7562 74.3813C57.4875 70.7626 54.1125 66.6563 51.6375 62.3251C56.6437 66.5251 62.25 70.2563 69.0187 73.0501C63.0375 68.9251 59.6625 64.8001 57.3562 60.6751C62.3062 64.7626 67.9687 67.4626 72.9 70.1626C69 66.5626 64.7437 63.1126 62.7 58.8376C66.7312 62.3438 71.4937 63.8626 76.2 65.4938C71.8312 62.5876 69.3187 60.6188 66.7125 57.1876C70.875 59.2876 74.3438 60.1126 79.35 61.3501C76.0875 59.5313 72.6187 57.0376 70.3875 54.8813C75.3937 56.1376 80.8875 56.3438 86.0625 56.2688C81.3187 55.0313 76.1625 53.9438 73.425 52.0501C84.375 52.1438 85.05 51.1876 89.6437 48.9001C79.9312 49.6126 73.7625 49.4438 70.275 45.3188Z" fill="#E5D6CD"/>
</svg>
